<svg width="86" height="69" viewBox="0 0 86 69" fill="none" xmlns="http://www.w3.org/2000/svg">
    <path d="M17.1861 0L0 38.7153L9.49882 54.8563L28.8216 10.66H65.8183L70.2309 0H17.1861Z" fill="url(#paint0_linear_7_12)"/>
    <path d="M57.0857 38.0185L48.6552 56.9929C48.2836 57.829 47.4475 58.3864 46.5185 58.3864H11.8908L18.1381 69H52.6033C57.0392 69 61.0571 66.3756 62.8453 62.3113L73.4822 38.0185H57.0857Z" fill="url(#paint1_linear_7_12)"/>
    <path d="M85.6288 19.0209L81.2161 29.6809H54.8795V29.6577H28.7984L33.4433 19.0209H85.6288Z" fill="url(#paint2_linear_7_12)"/>
    <path d="M49.8398 34.9064H53.4628L51.5119 38.7385H47.8657L49.8398 34.9064Z" fill="url(#paint3_linear_7_12)"/>
    <path d="M32.7696 45.9845L31.7245 43.5924H27.846L30.8187 37.7863H36.3229L34.0934 42.1292L35.0224 44.2427H38.1809L35.7423 49.0269H32.5373L29.4949 51.0939L27.3118 55.3904H21.8076L24.7804 49.5843H28.7053L32.1425 47.2154L32.7696 45.9845Z" fill="url(#paint4_linear_7_12)"/>
    <path d="M41.6423 40.8751H37.2761L40.3185 34.9064H45.9852L43.8718 39.0636L44.8705 41.3396H47.7039L45.1724 46.2632H40.5043L42.3854 42.5705L41.6423 40.8751Z" fill="url(#paint5_linear_7_12)"/>
    <defs>
        <linearGradient id="paint0_linear_7_12" x1="9.39162" y1="82.5071" x2="48.9754" y2="-14.6533" gradientUnits="userSpaceOnUse">
            <stop offset="0.172038" stop-color="#415DA8"/>
            <stop offset="1" stop-color="#D3AF96"/>
        </linearGradient>
        <linearGradient id="paint1_linear_7_12" x1="5.59201" y1="53.5164" x2="73.475" y2="53.5164" gradientUnits="userSpaceOnUse">
            <stop offset="0.1892" stop-color="#415DA8"/>
            <stop offset="1" stop-color="#D3AF96"/>
        </linearGradient>
        <linearGradient id="paint2_linear_7_12" x1="35.5323" y1="77.539" x2="68.6521" y2="-3.7554" gradientUnits="userSpaceOnUse">
            <stop offset="0.1892" stop-color="#415DA8"/>
            <stop offset="1" stop-color="#D3AF96"/>
        </linearGradient>
        <linearGradient id="paint3_linear_7_12" x1="21.9393" y1="84.3224" x2="60.5297" y2="-2.78208" gradientUnits="userSpaceOnUse">
            <stop offset="0.186877" stop-color="#3F6CB2"/>
            <stop offset="0.828382" stop-color="#D3AF96"/>
        </linearGradient>
        <linearGradient id="paint4_linear_7_12" x1="11.36" y1="79.6355" x2="49.9505" y2="-7.46909" gradientUnits="userSpaceOnUse">
            <stop offset="0.1892" stop-color="#415DA8"/>
            <stop offset="0.315" stop-color="#3F6CB2"/>
            <stop offset="0.56404" stop-color="#878DA4"/>
        </linearGradient>
        <linearGradient id="paint5_linear_7_12" x1="17.4886" y1="82.3503" x2="56.0791" y2="-4.7544" gradientUnits="userSpaceOnUse">
            <stop offset="0.279058" stop-color="#3F6CB2"/>
            <stop offset="0.740704" stop-color="#D3AF96"/>
        </linearGradient>
    </defs>
</svg>
